<?xml version="1.0" standalone="no"?>
<!DOCTYPE svg PUBLIC "-//W3C//DTD SVG 20010904//EN"
 "http://www.w3.org/TR/2001/REC-SVG-20010904/DTD/svg10.dtd">
<svg version="1.0" xmlns="http://www.w3.org/2000/svg"
 width="1792.000000pt" height="2332.000000pt" viewBox="0 0 1792.000000 2332.000000"
 preserveAspectRatio="xMidYMid meet">
<metadata>
Created by potrace 1.16, written by Peter Selinger 2001-2019
</metadata>
<g transform="translate(0.000000,2332.000000) scale(0.100000,-0.100000)"
fill="#000000" stroke="none">
<path d="M2810 18620 c-7 -4 -10 -74 -8 -206 l3 -199 70 -12 c39 -7 99 -18
135 -24 258 -44 377 -80 558 -171 203 -102 376 -247 529 -443 94 -120 323
-497 323 -532 0 -7 4 -13 8 -13 5 0 17 -19 27 -42 22 -52 88 -195 120 -263 13
-27 33 -75 45 -105 12 -30 28 -71 37 -90 8 -19 19 -44 24 -55 4 -11 17 -42 28
-70 47 -124 82 -208 93 -228 7 -12 22 -49 34 -82 12 -33 31 -82 42 -110 11
-27 34 -85 51 -128 17 -42 40 -98 51 -125 12 -26 25 -56 29 -67 4 -11 18 -42
31 -70 12 -27 35 -84 50 -125 30 -82 185 -461 235 -575 8 -16 38 -93 69 -170
30 -77 83 -207 117 -290 34 -82 69 -170 79 -195 80 -199 333 -818 357 -870 16
-36 36 -83 43 -105 7 -22 26 -68 41 -103 16 -34 29 -66 29 -70 1 -4 9 -25 20
-47 11 -22 19 -43 20 -48 0 -4 8 -26 19 -50 10 -23 26 -62 36 -87 48 -123 50
-127 74 -182 12 -26 21 -50 21 -53 0 -3 10 -27 21 -53 44 -99 49 -110 49 -124
0 -8 4 -18 8 -23 5 -6 21 -41 36 -80 16 -38 32 -78 38 -88 5 -11 25 -60 44
-110 19 -49 41 -104 49 -121 7 -17 27 -65 43 -106 17 -41 65 -158 107 -260 88
-212 214 -522 255 -625 39 -100 116 -288 152 -370 17 -38 41 -97 53 -130 24
-64 209 -527 225 -560 24 -53 73 -171 108 -261 44 -112 147 -364 167 -409 8
-16 52 -124 99 -240 119 -297 176 -435 191 -470 19 -43 92 -222 210 -515 178
-442 195 -484 215 -525 10 -22 46 -107 78 -190 33 -82 78 -192 100 -242 l40
-93 -49 -35 c-27 -21 -54 -33 -60 -29 -7 4 -9 3 -6 -3 6 -10 -44 -53 -62 -53
-6 0 -14 -7 -19 -15 -12 -23 -103 -85 -114 -79 -5 3 -7 0 -6 -8 2 -7 -2 -12
-8 -11 -7 1 -32 -15 -55 -36 -24 -21 -57 -45 -74 -54 -31 -17 -92 -65 -65 -51
9 4 12 3 7 -2 -5 -5 -16 -9 -25 -9 -9 0 -16 -6 -14 -13 1 -8 -2 -11 -8 -7 -11
7 -52 -18 -45 -28 3 -4 2 -5 -1 -2 -12 8 -45 -16 -38 -28 4 -7 4 -9 -1 -5 -10
10 -62 -18 -74 -40 -5 -9 -33 -30 -63 -46 -29 -15 -62 -36 -73 -46 -11 -9 -33
-26 -50 -36 -30 -18 -30 -18 -15 1 15 19 14 19 -10 3 -14 -9 -24 -21 -22 -27
1 -6 -3 -11 -9 -11 -18 0 -128 -54 -128 -63 -1 -5 5 -5 12 -1 8 5 9 4 2 -4 -6
-6 -21 -13 -34 -15 -13 -2 -29 -11 -36 -20 -7 -9 -20 -17 -29 -17 -9 0 -25 -9
-35 -19 -11 -11 -22 -17 -25 -14 -3 4 -14 -1 -24 -10 -10 -10 -21 -14 -25 -11
-3 4 -14 3 -24 0 -15 -6 -15 -8 -3 -16 13 -8 12 -10 -2 -10 -10 0 -18 -5 -18
-10 0 -7 -7 -7 -21 1 -15 7 -19 8 -15 0 4 -6 -9 -18 -31 -28 -21 -10 -40 -20
-43 -23 -3 -3 -27 -16 -55 -30 -27 -14 -59 -32 -70 -40 -19 -14 -19 -14 -5 5
13 17 10 16 -25 -4 -22 -13 -45 -30 -51 -38 -14 -16 -28 -17 -18 0 4 6 -4 2
-18 -11 -14 -13 -32 -24 -39 -26 -8 -1 -20 -5 -26 -9 -7 -5 -17 -5 -23 -2 -5
3 -10 2 -10 -4 0 -11 -39 -26 -59 -22 -7 1 -10 -2 -6 -8 3 -6 5 -11 3 -11 -2
0 -18 -4 -36 -9 -23 -7 -30 -7 -26 1 5 8 1 9 -10 5 -10 -4 -22 -7 -27 -7 -6 0
-8 -4 -5 -9 20 -32 -395 -139 -659 -170 -179 -21 -487 -8 -675 28 -113 22
-196 43 -204 51 -6 6 -20 10 -33 10 -25 0 -72 19 -90 36 -7 6 -29 15 -50 18
-40 8 -186 75 -191 88 -2 4 -8 8 -12 8 -21 0 -160 92 -154 102 4 7 2 8 -4 4
-7 -4 -12 -2 -12 4 0 6 -4 9 -9 6 -5 -3 -15 2 -22 11 -12 14 -12 16 1 8 32
-18 -28 40 -95 93 -84 66 -175 153 -175 166 0 6 24 -12 53 -39 l52 -50 -49 52
c-28 29 -52 50 -55 48 -2 -3 -12 2 -22 11 -16 15 -17 14 -15 -9 2 -14 13 -37
25 -52 11 -15 21 -34 21 -41 0 -8 4 -14 8 -14 5 0 18 -18 31 -40 12 -22 30
-40 39 -41 13 0 13 -2 3 -6 -11 -4 -9 -8 6 -17 11 -6 50 -44 87 -84 36 -39 69
-73 73 -75 5 -1 7 -5 5 -10 -1 -4 4 -6 10 -5 7 2 12 -3 10 -11 -2 -8 3 -11 13
-8 8 4 15 2 15 -3 0 -6 5 -10 10 -10 11 0 24 -9 60 -42 10 -9 21 -14 24 -10 3
3 6 -2 6 -12 0 -22 26 -31 45 -16 12 10 18 10 31 -1 13 -10 17 -10 25 2 7 11
9 10 9 -5 0 -14 5 -17 21 -13 27 7 51 -2 42 -16 -3 -6 -1 -7 5 -3 20 12 62 -6
75 -32 6 -15 21 -28 32 -31 17 -3 18 -2 5 15 -14 16 -13 17 3 11 10 -4 20 -7
22 -7 2 0 1 -8 -1 -18 -4 -13 6 -21 42 -35 25 -9 51 -14 57 -10 6 3 7 1 3 -5
-5 -8 2 -12 19 -12 15 0 24 -4 20 -10 -3 -6 1 -7 9 -4 9 3 16 2 16 -3 0 -5 6
-10 13 -11 6 0 39 -3 72 -5 62 -5 224 -18 260 -21 12 -1 26 -5 31 -9 6 -3 24
-3 40 0 41 9 84 6 99 -7 9 -8 15 -8 20 0 4 6 12 10 18 8 29 -5 263 15 274 24
6 5 22 8 35 6 12 -1 69 3 124 11 56 7 114 14 128 14 14 1 26 6 26 10 0 5 8 6
19 2 11 -3 21 0 24 8 5 14 61 31 102 31 11 0 23 4 26 9 11 16 88 20 136 8 40
-11 54 -9 125 14 44 14 87 24 94 21 8 -3 14 -2 14 3 0 8 28 19 47 19 3 0 10 6
14 14 6 9 9 9 9 1 0 -13 148 35 275 89 258 110 534 239 597 279 27 17 53 27
59 23 7 -4 9 -3 5 4 -8 13 43 54 61 48 7 -3 12 -1 10 5 -2 10 120 93 228 154
44 25 48 26 31 7 l-19 -22 30 15 c17 9 37 23 44 32 13 15 12 15 -11 3 -17 -9
-22 -9 -14 -1 6 7 18 13 25 14 8 2 20 7 28 11 10 7 12 5 7 -5 -4 -8 0 -5 8 5
9 11 31 29 50 40 54 33 344 231 416 286 36 27 110 82 165 121 55 39 203 151
328 248 126 97 286 220 355 274 188 144 532 403 657 494 61 44 162 117 225
163 340 248 716 491 1035 669 160 90 455 232 466 226 5 -4 9 -1 9 4 0 6 3 10
8 9 4 -1 22 6 39 15 18 10 35 17 38 16 3 0 25 9 48 20 41 20 167 65 277 100
30 10 65 23 77 29 12 7 45 18 75 27 29 8 103 28 163 45 123 34 121 34 225 54
41 8 95 20 120 26 25 6 63 13 85 16 22 3 78 11 125 19 80 13 175 23 280 31 98
7 430 3 515 -6 213 -22 320 -42 540 -96 33 -8 67 -16 75 -18 8 -1 33 -10 55
-20 22 -9 51 -18 65 -20 14 -2 39 -10 56 -19 17 -9 34 -13 38 -10 3 4 6 1 6
-6 0 -8 7 -11 15 -7 8 3 15 1 15 -4 0 -6 11 -10 24 -10 13 0 29 -7 36 -15 6
-8 15 -14 18 -13 14 4 182 -82 296 -151 364 -220 630 -464 863 -791 114 -161
210 -333 317 -567 36 -82 59 -86 41 -8 -14 59 -53 168 -91 253 -13 29 -24 55
-24 58 0 3 -27 60 -61 127 -68 137 -210 358 -284 443 -5 6 -30 36 -55 65 -62
74 -211 224 -291 292 -109 92 -327 250 -366 264 -10 3 -31 16 -48 28 -35 25
-339 179 -375 190 -14 4 -38 13 -55 20 -80 33 -115 46 -170 60 -33 9 -78 23
-100 31 -22 8 -74 21 -115 30 -41 9 -102 22 -135 30 -198 45 -333 57 -660 58
-372 1 -518 -10 -725 -54 -25 -5 -64 -9 -87 -10 -24 0 -43 -4 -43 -10 0 -5
-13 -10 -30 -10 -87 0 -707 -186 -803 -240 -9 -6 -45 -21 -80 -34 -138 -53
-459 -213 -683 -341 -181 -104 -639 -402 -724 -472 -81 -66 -105 -82 -108 -69
-2 8 3 27 11 43 8 15 31 71 51 123 20 52 41 104 46 115 5 11 21 52 35 90 14
39 29 79 34 90 20 43 104 249 172 420 102 257 103 261 138 352 17 46 39 102
50 125 17 39 145 364 237 603 32 82 52 132 90 220 7 17 19 48 27 70 11 32 74
190 187 470 4 11 15 36 23 55 8 19 20 53 27 75 7 22 26 69 42 105 36 79 37 82
83 200 20 52 43 109 50 125 8 17 20 48 28 70 8 22 24 63 35 90 11 28 43 109
72 180 28 72 60 149 71 172 10 24 19 45 19 48 0 4 8 25 19 48 10 23 46 114 81
202 34 88 68 174 75 190 7 17 25 62 40 100 15 39 33 84 40 100 7 17 48 118 90
225 42 107 83 209 91 227 7 17 14 35 14 40 0 4 6 20 14 35 8 14 19 43 26 65 7
21 18 49 26 63 7 14 24 54 37 90 30 78 129 326 157 390 10 25 62 155 115 290
53 135 103 259 110 275 7 17 34 84 60 150 26 66 53 134 60 150 10 24 186 462
335 835 13 30 28 69 35 85 8 17 64 156 125 310 374 934 570 1297 856 1590 192
196 392 329 627 417 122 45 178 59 432 109 28 5 66 13 85 17 l35 8 3 205 2
206 -1965 -1 -1965 0 0 -208 c0 -207 0 -208 23 -212 31 -7 154 -26 202 -31
309 -36 564 -112 735 -220 174 -110 292 -314 330 -570 25 -170 12 -461 -30
-665 -85 -412 -148 -621 -315 -1040 -30 -74 -88 -225 -130 -335 -86 -225 -161
-415 -181 -460 -7 -16 -36 -91 -65 -165 -28 -74 -56 -148 -64 -165 -7 -16 -20
-50 -30 -75 -9 -25 -21 -53 -26 -62 -5 -10 -9 -22 -9 -28 0 -6 -9 -32 -21 -58
-29 -66 -34 -76 -69 -172 -18 -47 -35 -89 -39 -95 -4 -5 -16 -32 -26 -60 -10
-27 -47 -124 -82 -215 -35 -91 -78 -201 -95 -245 -17 -44 -36 -93 -43 -110 -8
-16 -48 -118 -90 -225 -42 -107 -127 -321 -187 -475 -190 -480 -203 -514 -301
-765 -53 -135 -113 -288 -135 -340 -22 -52 -63 -156 -92 -230 -134 -347 -163
-421 -196 -497 -18 -45 -34 -85 -34 -88 0 -4 -7 -21 -15 -38 -8 -18 -28 -68
-45 -112 -17 -44 -39 -98 -49 -120 -10 -22 -22 -51 -26 -65 -4 -14 -25 -70
-47 -125 -22 -55 -51 -129 -65 -165 -14 -36 -29 -74 -33 -85 -4 -11 -15 -36
-23 -55 -8 -19 -32 -78 -52 -130 -20 -52 -45 -114 -56 -137 -10 -24 -19 -45
-19 -48 0 -2 -21 -57 -46 -122 -25 -65 -61 -158 -80 -208 -112 -288 -219 -555
-225 -555 -6 0 -11 10 -79 180 -50 126 -268 657 -281 685 -22 49 -141 343
-152 375 -6 19 -14 37 -17 40 -3 3 -14 30 -24 60 -10 30 -23 59 -27 64 -5 6
-9 16 -9 24 0 7 -11 37 -24 66 -13 29 -61 144 -106 257 -45 112 -88 219 -96
237 -8 17 -20 47 -28 65 -8 17 -44 109 -81 202 -37 94 -72 184 -80 200 -7 17
-30 71 -50 120 -21 50 -43 104 -50 120 -7 17 -41 100 -74 185 -34 85 -66 164
-71 175 -4 11 -34 83 -65 160 -31 77 -60 149 -65 160 -5 11 -23 54 -38 95 -29
74 -158 391 -295 725 -38 94 -85 211 -104 260 -19 50 -40 104 -48 120 -7 17
-25 62 -40 100 -14 39 -37 93 -49 120 -13 28 -44 104 -69 170 -25 67 -54 141
-65 165 -12 25 -31 70 -42 100 -12 30 -27 69 -35 85 -7 17 -34 84 -60 150 -26
66 -57 140 -67 165 -11 25 -24 54 -28 65 -4 11 -16 40 -25 65 -17 42 -35 89
-55 135 -4 11 -18 43 -30 70 -13 28 -36 85 -51 127 -16 43 -60 153 -98 245
-77 189 -76 186 -212 528 -55 138 -104 259 -109 270 -21 47 -49 118 -144 377
-82 221 -184 613 -207 793 -19 153 -4 323 40 452 68 198 177 325 358 416 92
47 283 106 398 123 17 3 57 10 90 16 33 6 69 12 80 13 130 18 194 27 212 31
23 4 23 5 23 209 0 113 -3 206 -7 207 -27 5 -4904 3 -4913 -2z"/>
<path d="M3710 15610 c-518 -71 -983 -340 -1316 -760 -181 -229 -336 -537
-388 -770 -9 -41 -19 -86 -22 -100 -19 -89 -26 -171 -31 -375 -3 -146 -1 -248
6 -280 6 -27 13 -68 16 -90 2 -22 7 -51 10 -65 3 -14 10 -47 15 -75 6 -27 23
-95 39 -150 26 -92 43 -139 91 -250 10 -22 32 -76 51 -120 37 -90 128 -254
194 -351 130 -190 322 -398 562 -609 270 -237 590 -448 968 -639 330 -167 417
-201 1010 -401 430 -144 542 -184 707 -249 256 -101 522 -225 658 -307 47 -28
100 -60 118 -70 28 -16 145 -95 236 -159 146 -103 372 -331 510 -515 107 -143
145 -203 207 -325 71 -140 90 -191 159 -425 52 -176 79 -447 68 -674 -7 -127
-14 -181 -48 -346 -12 -59 -70 -235 -88 -270 -9 -16 -15 -36 -14 -42 2 -7 -2
-13 -8 -13 -5 0 -10 -8 -10 -18 0 -10 -8 -29 -17 -42 -10 -14 -17 -27 -15 -30
4 -10 -9 -40 -18 -40 -4 0 -12 -12 -18 -27 -5 -16 -25 -48 -44 -73 -19 -25
-45 -64 -59 -86 -28 -48 -115 -149 -173 -203 -22 -20 -54 -49 -70 -65 -17 -16
-32 -29 -33 -28 -10 7 -23 -1 -23 -13 0 -9 -11 -20 -25 -25 -14 -5 -25 -14
-25 -20 0 -6 -4 -9 -9 -5 -6 3 -14 -3 -20 -12 -5 -10 -12 -17 -16 -15 -3 1
-21 -9 -39 -23 -19 -14 -43 -27 -54 -30 -29 -5 -80 -34 -62 -35 12 0 11 -3 -3
-11 -9 -5 -22 -7 -27 -4 -6 3 -10 1 -10 -6 0 -7 -3 -9 -7 -6 -3 4 -21 -3 -39
-14 -19 -11 -38 -18 -44 -14 -6 3 -13 0 -16 -9 -3 -8 -12 -17 -20 -20 -8 -3
-12 -1 -9 4 3 6 -1 7 -9 4 -9 -3 -16 -10 -16 -16 0 -5 -10 -6 -21 -3 -14 5
-19 3 -15 -3 3 -6 -7 -13 -24 -17 -16 -4 -30 -10 -30 -15 0 -7 -46 -17 -105
-22 -11 -1 -23 -6 -26 -11 -4 -5 -22 -10 -40 -10 -19 -1 -37 -6 -40 -10 -14
-19 -284 -33 -359 -18 -30 6 -71 13 -90 15 -71 9 -280 82 -280 98 0 5 -6 8
-14 8 -21 0 -67 26 -59 33 3 4 -4 7 -16 7 -46 0 -290 208 -307 262 -3 10 -10
18 -15 18 -5 0 -9 4 -9 9 0 5 -18 39 -41 76 -22 37 -47 85 -55 107 -7 21 -17
44 -21 51 -4 6 -8 18 -9 27 -2 8 -7 33 -13 55 -12 45 -15 248 -4 259 4 3 17
-21 29 -54 34 -94 83 -169 164 -250 90 -89 208 -155 340 -190 232 -62 525 2
740 163 58 43 210 195 210 209 0 5 11 21 25 36 14 15 25 31 25 35 0 5 9 22 21
38 11 16 22 36 23 43 1 8 8 21 15 30 7 8 10 20 6 26 -3 5 -2 10 3 10 5 0 12
14 16 31 3 17 12 45 20 62 57 133 67 392 20 571 -9 33 -17 66 -19 71 -10 43
-19 72 -26 81 -5 6 -10 20 -12 31 -1 11 -10 31 -18 44 -9 13 -24 46 -34 73
-11 27 -30 63 -44 80 -15 16 -20 26 -12 22 8 -6 7 1 -4 18 -10 14 -20 26 -24
26 -3 0 -18 20 -33 44 -73 114 -308 302 -483 386 -83 40 -276 108 -323 114
-15 2 -34 6 -42 9 -8 3 -62 11 -120 18 -109 12 -363 6 -430 -11 -19 -4 -63
-13 -97 -19 -119 -22 -384 -118 -499 -181 -329 -180 -587 -423 -800 -752 -56
-88 -146 -276 -179 -378 -16 -47 -32 -94 -36 -105 -4 -11 -13 -45 -19 -75 -7
-30 -16 -63 -21 -72 -5 -10 -9 -32 -9 -50 0 -18 -9 -73 -20 -123 -16 -75 -18
-123 -16 -285 3 -201 14 -278 75 -507 10 -40 16 -74 13 -77 -3 -4 0 -6 7 -6 7
0 10 -4 6 -9 -3 -5 0 -13 6 -16 5 -4 8 -13 5 -20 -3 -8 -1 -15 5 -17 5 -2 17
-27 28 -55 10 -29 40 -91 65 -139 25 -47 43 -90 40 -95 -3 -5 2 -9 11 -9 11 0
15 -5 12 -14 -3 -8 0 -17 8 -19 7 -3 16 -20 20 -37 4 -17 9 -29 12 -26 9 9 45
-43 38 -54 -4 -6 -2 -9 3 -8 5 2 32 -31 60 -72 116 -172 305 -387 431 -490 24
-19 49 -41 56 -48 8 -6 18 -12 24 -12 6 0 11 -4 11 -9 0 -8 43 -43 101 -81 13
-8 33 -25 45 -37 15 -13 25 -17 28 -10 3 9 5 8 5 0 1 -7 7 -13 14 -13 7 0 18
-9 25 -20 7 -12 18 -17 29 -13 13 5 15 2 10 -11 -5 -14 -3 -17 8 -12 8 3 15 2
15 -3 0 -5 14 -14 30 -21 17 -7 30 -17 30 -22 0 -5 4 -6 10 -3 5 3 21 -5 34
-18 16 -16 27 -21 30 -14 2 7 5 4 5 -6 1 -10 5 -16 9 -13 5 3 25 -4 45 -14 26
-14 37 -16 37 -8 1 8 6 6 14 -4 7 -10 15 -15 19 -12 3 3 36 -8 74 -24 37 -17
110 -44 161 -62 52 -17 101 -37 109 -45 16 -17 27 -20 19 -6 -4 5 3 7 14 4 11
-3 20 -9 20 -14 0 -5 7 -6 15 -3 8 4 15 1 15 -6 0 -7 6 -10 14 -7 8 3 17 3 21
-1 4 -4 11 -8 16 -8 5 -1 12 -3 17 -4 4 -2 18 -4 32 -5 14 -1 39 -5 55 -9 17
-4 41 -9 55 -11 14 -2 41 -7 60 -11 19 -4 41 -6 48 -5 6 1 12 -3 12 -9 0 -6 4
-9 9 -6 4 3 55 -3 112 -14 130 -23 289 -29 534 -19 266 11 454 39 755 109 47
11 120 27 163 36 43 8 90 20 105 26 15 5 39 10 55 10 15 0 27 4 27 9 0 5 7 9
15 9 58 0 578 198 774 295 29 14 60 24 68 21 8 -3 11 -1 8 4 -5 9 8 12 31 9 4
0 10 4 13 9 3 5 82 49 176 97 93 48 234 123 312 166 78 44 145 79 148 79 4 0
32 16 63 37 110 70 128 82 267 165 216 131 329 203 390 248 30 22 59 39 64 36
4 -3 17 1 27 10 18 14 17 14 -6 4 l-25 -11 24 20 c12 12 27 18 32 15 5 -3 9 0
9 5 0 6 32 32 71 57 67 43 143 100 338 257 61 48 91 66 105 62 12 -3 15 -2 8
1 -10 5 -10 9 -1 20 15 19 33 18 25 -2 -3 -8 -2 -12 4 -9 6 3 10 15 10 25 0
11 5 17 13 15 6 -3 23 5 37 16 l25 21 -30 -16 -30 -17 24 21 c13 11 30 19 37
16 8 -3 18 3 23 12 6 9 11 13 11 9 0 -5 13 5 29 21 16 16 101 80 188 143 172
124 215 156 516 392 347 272 566 434 770 570 290 193 541 341 737 436 192 92
298 141 308 141 5 0 43 14 83 31 179 77 522 174 744 212 309 53 643 47 890
-18 588 -153 1012 -566 1160 -1130 22 -83 45 -264 45 -350 0 -153 -37 -356
-92 -509 -51 -142 -182 -376 -209 -376 -6 0 -8 -4 -5 -9 7 -10 -99 -138 -185
-224 -74 -73 -180 -149 -233 -167 -27 -9 -35 -16 -31 -29 4 -13 -10 -23 -63
-45 -37 -16 -74 -35 -82 -41 -8 -7 -43 -21 -77 -32 -52 -17 -63 -17 -67 -6 -3
8 -11 11 -17 7 -8 -5 -8 -9 1 -14 16 -10 -11 -16 -180 -36 -86 -10 -170 -14
-230 -11 -157 9 -396 65 -460 108 -14 9 -38 21 -55 26 -16 6 -29 16 -27 22 1
7 -2 10 -7 6 -14 -8 -92 45 -84 58 3 6 1 7 -5 3 -20 -12 -232 207 -232 239 0
3 -11 23 -25 43 -27 40 -32 57 -12 46 7 -4 9 -3 4 2 -5 5 -14 9 -20 9 -7 0
-12 8 -12 18 0 10 -7 22 -15 27 -8 5 -11 10 -7 10 5 0 -1 17 -11 38 -42 78
-53 126 -59 243 -6 114 7 252 28 290 4 9 10 31 12 50 7 55 72 183 113 223 42
41 61 47 42 14 -18 -34 -14 -143 7 -218 34 -117 135 -235 242 -281 26 -11 62
-27 80 -36 39 -18 160 -22 194 -7 13 7 47 20 74 29 64 22 134 66 171 107 97
108 125 179 126 323 2 90 -1 106 -27 165 -16 36 -33 67 -37 68 -4 2 -8 11 -8
19 0 9 -8 22 -17 30 -11 9 -12 11 -3 7 8 -4 -12 20 -45 55 -138 144 -364 196
-590 137 -86 -23 -216 -92 -287 -152 -34 -29 -67 -50 -73 -47 -5 4 -7 3 -3 -2
4 -4 -12 -32 -37 -61 -85 -99 -177 -273 -199 -375 -3 -13 -11 -44 -17 -69 -7
-25 -13 -113 -13 -200 -1 -137 1 -160 20 -200 46 -101 56 -129 49 -141 -5 -7
-4 -10 2 -6 14 9 24 -18 16 -38 -3 -10 -1 -15 7 -13 7 2 15 -3 18 -11 3 -8 0
-11 -7 -7 -7 5 -8 0 -2 -16 4 -13 15 -23 22 -23 8 0 29 -28 47 -63 18 -35 28
-61 22 -57 -5 3 -10 1 -10 -4 0 -6 7 -11 15 -11 9 0 12 -6 8 -17 -4 -10 -2
-14 4 -10 16 10 44 -27 37 -49 -4 -13 -3 -15 3 -6 8 10 12 10 22 -2 7 -8 10
-20 7 -25 -4 -5 5 -21 20 -36 14 -14 23 -32 20 -40 -2 -7 1 -19 9 -25 23 -19
12 36 -13 65 -32 37 -27 43 7 11 16 -16 30 -37 30 -47 1 -11 1 -27 2 -38 0
-10 16 -34 35 -52 20 -19 32 -26 29 -16 -4 10 -2 17 4 17 6 0 12 -4 12 -10 1
-5 2 -15 3 -22 2 -19 119 -109 134 -103 7 2 11 1 8 -4 -8 -12 21 -34 34 -26 6
4 9 1 8 -7 -2 -8 6 -13 19 -12 12 0 20 -3 17 -8 -5 -8 134 -78 156 -78 6 0 29
-9 51 -20 41 -22 182 -61 283 -79 33 -6 142 -11 243 -11 147 -1 190 2 215 15
30 14 136 37 186 39 12 1 22 4 22 7 0 4 17 10 38 14 20 4 51 13 69 22 17 8 38
16 47 17 9 1 28 13 42 27 18 16 28 20 31 12 4 -10 12 -9 34 3 16 8 27 19 24
24 -3 5 4 14 15 20 13 7 20 7 20 0 0 -5 -5 -10 -12 -10 -6 0 -8 -3 -5 -6 10
-10 38 17 30 29 -4 6 0 8 10 4 10 -4 16 -2 14 6 -1 7 8 12 20 11 16 0 20 3 13
11 -6 8 -6 12 3 12 20 0 107 66 107 81 0 7 4 11 9 8 16 -10 42 6 36 22 -4 12
-3 13 10 2 8 -7 12 -16 9 -21 -3 -5 -1 -9 5 -9 5 0 13 5 16 10 3 6 1 10 -4 10
-16 0 -13 29 4 46 8 9 15 12 15 7 0 -4 7 3 16 15 12 17 19 20 29 12 9 -8 11
-5 8 14 -4 20 0 26 21 32 17 4 26 13 26 26 0 10 5 16 10 13 6 -3 10 -1 10 4 0
6 6 11 14 11 8 0 13 8 12 18 0 9 5 16 12 15 6 -2 12 2 12 8 0 6 20 30 45 53
25 24 45 49 45 55 0 7 9 22 21 34 11 12 43 57 72 99 28 43 57 78 64 78 6 0 15
4 18 10 4 6 -1 7 -11 3 -12 -4 -9 5 11 35 15 23 32 42 36 42 5 0 9 9 9 20 0
28 30 26 31 -2 1 -21 2 -21 6 -3 3 11 10 24 17 28 7 6 4 7 -6 3 -10 -3 -18 -1
-18 5 0 6 -5 7 -12 3 -8 -5 -9 -2 -5 10 4 10 7 21 7 24 0 4 5 0 11 -8 9 -12
10 -10 5 9 -6 30 32 90 54 83 12 -4 13 -3 2 10 -10 13 -10 21 0 44 17 39 18
40 28 24 7 -11 10 -4 10 25 0 35 19 91 20 58 0 -7 4 -13 10 -13 6 0 6 9 0 24
-5 15 -5 27 2 34 6 6 13 24 14 39 2 15 9 32 17 38 25 18 42 178 41 385 0 197
-1 209 -54 454 -10 48 -52 180 -70 221 -37 86 -95 201 -102 203 -4 2 -8 10 -8
17 0 8 -32 63 -72 122 -306 461 -794 798 -1351 933 -49 11 -157 33 -240 47
-138 24 -178 26 -427 27 -270 1 -301 -1 -565 -40 -90 -14 -243 -43 -335 -64
-19 -4 -98 -26 -175 -48 -630 -182 -1216 -463 -1850 -887 -82 -55 -154 -102
-160 -104 -5 -2 -18 -10 -28 -19 -9 -8 -26 -20 -37 -26 -22 -12 -311 -220
-467 -335 -56 -42 -150 -112 -209 -155 -59 -44 -113 -79 -120 -79 -7 0 -11 -4
-9 -7 4 -6 -95 -85 -225 -179 -19 -14 -36 -29 -38 -33 -2 -4 -8 -8 -13 -8 -6
0 -7 6 -3 13 5 8 3 8 -9 -2 -9 -7 -15 -16 -12 -20 2 -4 -21 -25 -52 -47 -88
-62 -386 -285 -411 -308 -12 -11 -42 -30 -65 -42 -23 -12 -41 -27 -39 -34 1
-6 -2 -9 -7 -5 -12 7 -123 -64 -116 -75 8 -13 -33 -42 -47 -34 -7 4 -10 4 -6
-1 5 -5 -10 -16 -32 -26 -22 -10 -39 -24 -38 -31 2 -7 -5 -12 -14 -12 -10 1
-18 -5 -18 -13 0 -9 -6 -13 -15 -9 -8 3 -14 0 -12 -7 1 -7 -5 -12 -13 -12 -22
-1 -41 -15 -35 -26 3 -5 -1 -6 -9 -3 -10 4 -16 1 -16 -8 0 -8 -27 -30 -60 -49
-54 -30 -116 -72 -81 -53 9 4 12 3 7 -4 -4 -6 -13 -9 -21 -6 -7 3 -18 -4 -25
-15 -6 -11 -24 -28 -41 -36 -16 -9 -28 -19 -25 -23 2 -4 -8 -8 -22 -7 -16 0
-26 -5 -25 -12 2 -7 -10 -20 -25 -31 -34 -24 -64 -38 -37 -18 11 8 29 22 40
30 11 9 15 16 10 16 -17 0 -96 -76 -88 -85 5 -4 3 -5 -4 -1 -14 8 -84 -24 -77
-36 3 -5 -8 -13 -25 -19 -17 -6 -31 -15 -31 -20 0 -5 -9 -9 -21 -9 -11 0 -18
-3 -16 -7 5 -8 -18 -34 -28 -32 -16 3 -66 -22 -60 -30 3 -6 -9 -14 -27 -19
-18 -5 -32 -15 -30 -21 1 -7 -2 -10 -7 -7 -10 7 -104 -37 -97 -45 3 -3 -5 -6
-17 -6 -12 -1 -27 -9 -33 -18 -6 -8 -16 -15 -22 -15 -15 0 -72 -34 -72 -42 0
-5 -9 -8 -21 -8 -11 0 -18 -4 -15 -9 3 -5 0 -8 -7 -8 -6 1 -39 -12 -72 -27
-164 -76 -210 -97 -327 -146 -71 -29 -128 -57 -128 -62 0 -5 -5 -6 -10 -3 -6
4 -17 1 -25 -5 -8 -6 -18 -9 -24 -6 -5 3 -11 2 -13 -3 -4 -10 -345 -121 -478
-155 -52 -13 -129 -33 -170 -44 -41 -11 -108 -23 -149 -27 -40 -4 -68 -11 -62
-15 7 -4 -29 -6 -79 -5 -50 1 -93 -2 -96 -7 -3 -4 -10 -6 -15 -2 -5 3 -16 0
-24 -6 -11 -9 -15 -10 -15 -1 0 9 -62 12 -237 12 -219 1 -296 3 -315 9 -15 5
-24 6 -78 14 -30 5 -95 19 -145 33 -49 13 -107 28 -128 34 -21 5 -80 26 -130
46 -51 19 -114 44 -142 55 -95 37 -234 111 -228 121 3 6 1 7 -4 4 -32 -20
-254 163 -406 335 -76 85 -98 119 -55 82 l23 -19 -19 23 c-11 12 -21 20 -24
17 -7 -7 -32 15 -32 27 0 6 8 4 18 -3 15 -11 15 -11 4 1 -7 8 -17 15 -23 15
-5 0 -8 3 -6 7 1 3 -7 17 -19 30 -67 74 -193 316 -244 468 -18 52 -35 104 -40
115 -12 30 -38 160 -51 253 -18 128 -7 384 21 522 14 63 27 117 30 120 3 3 11
25 17 50 25 102 97 263 178 398 108 180 338 404 540 524 487 292 1043 304
1455 32 76 -49 207 -169 238 -216 9 -14 34 -51 55 -83 52 -78 91 -166 124
-277 24 -83 27 -109 27 -243 0 -107 -5 -166 -16 -207 -9 -31 -13 -59 -10 -62
3 -3 0 -6 -6 -6 -7 0 -12 -6 -12 -14 0 -7 -11 -34 -25 -60 -13 -25 -22 -46
-18 -46 4 0 -2 -10 -13 -22 -11 -13 -33 -43 -49 -68 -35 -55 -123 -142 -136
-134 -5 3 -8 1 -7 -4 4 -12 -101 -97 -108 -89 -3 3 -13 -2 -23 -12 -28 -28
-251 -91 -251 -72 0 4 21 17 46 29 177 86 290 343 239 547 -26 104 -67 178
-143 253 -110 110 -235 162 -392 162 -85 0 -203 -22 -226 -41 -7 -6 -19 -7
-25 -3 -8 4 -9 3 -5 -4 4 -7 1 -12 -8 -12 -34 0 -138 -73 -213 -149 -176 -179
-257 -398 -242 -646 4 -60 9 -117 12 -125 2 -8 7 -33 11 -55 4 -22 16 -58 26
-80 11 -22 27 -59 37 -82 9 -24 20 -43 25 -43 4 0 8 -8 8 -18 0 -9 8 -22 19
-29 10 -6 27 -30 39 -53 11 -22 24 -42 28 -43 5 -1 8 -5 6 -9 -1 -5 3 -8 9 -8
6 0 9 -7 6 -15 -4 -8 -2 -17 3 -20 6 -4 10 -1 10 6 0 7 8 5 20 -6 11 -10 20
-24 20 -32 0 -7 4 -12 8 -11 9 3 72 -47 72 -57 0 -3 -4 -3 -10 0 -6 3 -7 -1
-4 -9 7 -19 20 -21 27 -3 3 6 6 2 6 -9 1 -22 25 -39 49 -35 7 1 15 -5 18 -13
3 -9 10 -13 15 -10 5 3 9 1 9 -5 0 -5 -6 -12 -12 -15 -7 -3 0 -4 17 -3 23 2
32 -4 43 -25 11 -25 28 -33 55 -29 4 0 6 -5 5 -11 -2 -7 5 -12 15 -12 17 2 21
-7 18 -36 -1 -12 0 -12 7 -2 5 7 16 10 25 6 11 -4 17 -1 17 7 1 9 4 8 11 -4 6
-9 14 -15 20 -12 16 11 10 -7 -8 -22 -17 -14 -17 -14 0 -9 9 3 17 1 17 -5 0
-6 7 -3 16 5 19 20 28 20 21 2 -8 -21 21 -28 32 -8 6 9 11 14 12 10 1 -5 3
-12 4 -18 1 -5 3 -13 4 -17 1 -5 6 -1 12 7 8 11 12 12 16 2 2 -6 9 -10 13 -7
5 3 37 -3 72 -13 131 -40 298 -63 403 -57 22 2 101 6 175 10 127 6 246 26 350
59 140 43 384 152 374 167 -3 5 1 6 8 4 7 -3 30 9 50 27 51 46 82 69 313 237
55 41 120 98 145 130 135 168 192 254 260 388 20 40 40 70 45 65 4 -4 5 1 2
10 -3 10 0 24 9 32 8 8 14 19 13 23 -4 18 14 69 29 81 11 9 12 12 3 12 -11 0
-11 3 -1 16 8 8 15 30 17 47 2 18 8 34 13 35 6 2 7 8 4 13 -3 6 -1 16 5 23 7
8 11 18 10 22 -1 5 0 16 4 24 3 8 8 29 10 45 3 17 12 68 20 115 71 387 28 878
-109 1244 -25 66 -53 141 -62 166 -9 25 -19 50 -24 55 -4 6 -28 50 -54 100
-126 247 -253 416 -483 645 -158 157 -335 309 -536 459 -60 45 -128 95 -150
112 -44 34 -269 198 -355 259 -30 22 -91 66 -136 97 -93 67 -306 234 -438 343
-286 237 -439 457 -479 686 -33 193 18 350 142 436 67 47 120 62 185 53 87
-11 160 -65 181 -132 7 -26 -6 -30 -24 -9 -21 26 -96 45 -136 36 -49 -11 -104
-56 -132 -109 -48 -92 -7 -216 92 -274 42 -24 59 -29 118 -28 116 1 200 53
252 158 26 52 29 68 30 153 0 84 -3 102 -29 157 -66 143 -233 247 -396 248
-82 0 -197 -31 -260 -70 -104 -65 -208 -203 -245 -325 -24 -78 -28 -256 -9
-350 36 -178 126 -344 288 -538 67 -78 196 -203 250 -242 12 -8 30 -22 40 -32
11 -10 23 -18 27 -18 4 0 9 -7 13 -15 5 -15 -139 53 -245 115 -30 18 -88 51
-129 73 -41 22 -108 60 -148 84 -41 24 -75 43 -77 43 -8 0 -240 143 -336 207
-163 109 -167 111 -217 151 -27 20 -87 66 -133 102 -126 97 -338 309 -434 434
-47 61 -89 116 -93 121 -24 30 -127 223 -160 300 -68 155 -119 334 -137 475
-18 149 2 381 47 518 33 103 111 263 174 357 31 47 54 88 50 92 -19 20 -145
-98 -211 -197 -238 -359 -268 -784 -88 -1250 102 -263 258 -496 483 -720 122
-122 167 -164 240 -220 24 -19 67 -53 95 -75 144 -115 505 -350 690 -451 90
-48 105 -57 105 -66 0 -9 -45 6 -215 70 -229 87 -547 236 -730 342 -310 179
-593 403 -764 607 -156 186 -187 229 -290 416 -12 21 -33 66 -47 100 -14 34
-32 76 -40 92 -46 101 -100 306 -119 451 -28 207 -18 423 26 604 177 726 814
1191 1467 1069 290 -54 508 -214 637 -469 84 -166 106 -406 54 -577 -27 -89
-113 -217 -192 -288 -53 -47 -94 -71 -229 -137 -19 -9 -48 -11 -48 -3 0 2 21
25 46 51 140 145 166 392 57 567 -58 94 -170 182 -273 213 -91 28 -231 14
-321 -31 -86 -44 -182 -138 -226 -223 -47 -90 -57 -249 -23 -363 25 -84 102
-202 175 -266 371 -330 975 -190 1218 282 86 166 123 374 99 558 -22 178 -115
413 -197 503 -5 7 -26 31 -45 55 -158 198 -413 353 -695 423 -205 50 -478 35
-723 -41 -107 -33 -305 -133 -408 -206 -359 -252 -597 -597 -707 -1022 -84
-325 -83 -650 3 -985 29 -114 69 -239 90 -283 10 -20 10 -20 -3 -5 -8 10 -17
15 -20 12 -3 -4 -9 7 -13 22 -4 16 -11 31 -15 34 -16 11 -118 281 -153 406
-63 226 -102 500 -91 649 7 99 32 319 40 350 2 11 12 52 20 90 9 39 20 79 25
90 5 11 17 45 26 75 9 30 20 60 24 65 4 6 15 33 25 60 67 186 237 445 408 622
142 147 352 300 543 396 116 58 332 126 499 158 113 21 455 18 571 -5 24 -5
86 -15 124 -21 14 -2 71 -15 127 -29 120 -30 113 -30 113 -12 0 8 -48 34 -117
64 -139 59 -219 84 -328 106 -44 8 -93 18 -110 22 -50 10 -366 13 -435 4z
m368 -714 c15 -3 43 -8 62 -11 132 -21 341 -105 449 -182 91 -65 209 -186 268
-275 46 -70 108 -207 116 -257 2 -11 6 -24 10 -27 11 -11 8 -54 -4 -54 -5 0
-8 4 -4 9 3 5 -3 27 -14 48 -10 21 -34 72 -52 113 -58 131 -108 201 -222 312
-118 114 -263 194 -453 249 -98 28 -126 32 -274 36 -152 4 -174 3 -275 -21
-224 -53 -425 -144 -570 -258 -74 -58 -211 -194 -270 -268 -113 -140 -190
-286 -248 -466 -65 -200 -87 -336 -92 -559 -8 -406 111 -798 355 -1161 238
-355 600 -668 1050 -910 19 -11 37 -21 40 -24 27 -28 510 -243 675 -300 44
-15 123 -45 175 -65 52 -20 156 -57 230 -81 74 -24 149 -51 165 -58 17 -8 46
-19 65 -24 247 -72 658 -253 960 -422 148 -83 442 -283 506 -344 6 -6 48 -45
93 -86 46 -41 87 -83 93 -95 7 -12 -4 -7 -28 16 -79 72 -221 187 -299 241 -94
65 -252 163 -286 178 -13 6 -55 28 -94 50 -98 55 -229 119 -370 180 -125 55
-386 158 -420 167 -11 2 -29 9 -40 14 -11 4 -157 54 -325 110 -168 56 -348
117 -400 137 -52 19 -122 45 -155 57 -83 31 -219 89 -282 119 -29 14 -55 26
-59 26 -3 0 -65 30 -137 66 -133 67 -198 103 -316 178 -36 23 -73 46 -82 51
-53 31 -225 158 -335 245 -84 68 -357 357 -426 452 -43 58 -78 109 -78 113 0
3 -18 33 -40 67 -42 62 -112 195 -150 283 -11 28 -25 59 -31 70 -18 39 -60
181 -84 289 -67 295 -55 665 31 962 67 234 227 506 399 678 133 133 294 246
450 316 134 60 338 113 475 123 54 4 217 -1 248 -7z m87 -1108 c66 -25 96 -57
119 -129 19 -55 17 -68 -15 -156 -21 -54 -23 -56 -95 -89 -40 -19 -80 -34 -89
-34 -8 0 -45 14 -81 32 -56 27 -69 39 -90 79 -36 71 -39 115 -15 180 30 79 39
89 117 115 85 29 80 29 149 2z m10072 -4984 c221 -29 423 -79 586 -143 498
-198 895 -586 1071 -1048 79 -207 122 -463 112 -667 -3 -66 -6 -132 -6 -145 0
-13 -7 -53 -16 -90 -8 -36 -16 -79 -16 -94 -1 -15 -5 -30 -10 -33 -4 -3 -8
-14 -8 -25 0 -28 -38 -131 -51 -140 -7 -4 -9 -14 -6 -24 4 -9 3 -14 -3 -10 -9
6 -14 -8 -11 -27 0 -5 -3 -8 -9 -8 -5 0 -6 -7 -3 -17 4 -11 3 -14 -5 -9 -7 4
-12 3 -12 -1 0 -5 -20 -44 -45 -88 -25 -44 -40 -74 -34 -68 7 7 25 34 40 60
16 26 29 44 29 40 0 -14 -19 -47 -89 -152 -68 -104 -72 -109 -140 -188 -23
-27 -38 -53 -35 -59 4 -6 2 -8 -3 -5 -14 9 -37 -19 -27 -34 4 -7 3 -9 -3 -6
-5 3 -36 -21 -69 -54 -74 -76 -223 -196 -289 -234 -125 -70 -159 -88 -217
-112 -99 -39 -200 -73 -217 -72 -9 0 -2 5 14 11 195 66 321 123 400 181 24 18
67 49 97 70 84 60 333 312 269 273 -8 -5 -8 0 0 18 7 14 16 24 22 23 5 -1 12
4 15 12 3 9 0 11 -9 6 -8 -4 0 7 17 26 140 153 265 371 311 544 24 92 55 281
60 370 6 102 -11 303 -37 430 -30 145 -52 212 -111 343 -16 35 -29 67 -29 71
0 11 -118 187 -175 260 -188 245 -482 459 -795 578 -382 146 -816 180 -1310
102 -219 -34 -568 -130 -780 -214 -315 -125 -662 -298 -931 -464 -118 -72
-173 -107 -304 -194 -255 -170 -278 -187 -1140 -837 -170 -128 -331 -250 -357
-269 -70 -53 -307 -236 -351 -272 -20 -16 -41 -28 -45 -25 -11 7 -37 -11 -37
-26 0 -12 -93 -88 -109 -88 -5 0 -2 8 5 17 8 10 0 6 -17 -7 -17 -14 -29 -28
-27 -32 2 -5 -1 -8 -7 -8 -18 0 -100 -62 -95 -71 3 -4 0 -11 -6 -15 -8 -4 -9
-3 -5 4 4 7 4 12 0 12 -12 0 -105 -72 -100 -78 3 -2 13 1 23 9 11 9 14 10 9 2
-4 -7 -16 -18 -28 -24 -15 -8 -19 -8 -14 0 13 20 -9 11 -58 -24 -27 -19 -46
-35 -42 -35 4 0 20 8 34 18 32 22 59 37 52 29 -20 -23 -84 -66 -92 -61 -5 3
-18 -6 -29 -20 -11 -14 -23 -25 -27 -24 -15 4 -52 -24 -46 -34 4 -7 3 -8 -5
-4 -6 4 -27 -2 -46 -14 -39 -24 -47 -37 -12 -20 20 10 20 9 -3 -9 -14 -11 -33
-21 -42 -21 -10 0 -18 -5 -18 -11 0 -5 -4 -8 -9 -5 -4 3 -19 -6 -32 -20 -12
-13 -29 -22 -37 -19 -7 2 -10 0 -7 -5 3 -6 1 -10 -5 -10 -6 0 -8 -5 -4 -12 5
-7 3 -8 -6 -3 -7 4 -15 3 -19 -2 -3 -5 -32 -25 -63 -46 -31 -21 -64 -44 -72
-53 -8 -8 -17 -14 -18 -13 -8 5 -67 -39 -61 -45 4 -4 0 -4 -9 -1 -9 4 -29 -1
-45 -11 -15 -9 -44 -27 -63 -39 -19 -12 -69 -42 -110 -66 -41 -24 -76 -47 -78
-51 -2 -5 -11 -8 -20 -8 -9 0 -42 -14 -72 -31 -78 -44 -245 -127 -380 -189
-63 -29 -142 -65 -175 -80 -33 -15 -91 -39 -130 -53 -38 -14 -103 -39 -144
-56 -41 -16 -78 -28 -83 -25 -4 3 -8 -2 -8 -10 0 -21 -18 -30 -35 -16 -12 10
-15 9 -15 -6 0 -16 -2 -17 -10 -4 -9 13 -12 13 -21 -3 -8 -14 -14 -15 -30 -6
-19 10 -20 8 -14 -13 5 -17 4 -19 -4 -8 -9 13 -12 12 -24 -4 -8 -11 -19 -16
-25 -12 -6 4 -22 1 -34 -6 -13 -6 -34 -11 -48 -10 -23 2 -23 1 -5 -8 19 -10
18 -10 -3 -6 -13 2 -34 -2 -49 -9 -14 -7 -32 -11 -40 -8 -8 3 -24 1 -36 -5
-24 -12 -97 -27 -111 -23 -6 1 -19 -2 -30 -8 -37 -17 -88 -31 -116 -31 -15 0
-30 -3 -33 -6 -4 -4 -21 -8 -39 -9 -18 -2 -52 -7 -76 -13 -27 -6 -45 -6 -48 0
-4 6 -10 5 -14 -3 -10 -15 -130 -24 -130 -9 0 5 -19 10 -42 10 -35 -1 -40 -3
-25 -11 10 -6 25 -8 32 -5 8 3 17 2 19 -3 8 -12 -1 -12 -239 -15 -121 -2 -199
-1 -172 1 27 2 47 9 47 16 0 7 4 6 10 -3 7 -10 12 -12 18 -4 8 13 42 15 42 2
0 -5 8 -4 18 1 13 7 23 6 32 -2 10 -9 11 -9 6 1 -4 6 -3 12 3 12 5 0 12 -6 15
-13 5 -9 7 -9 12 1 3 7 23 12 47 11 33 0 38 -2 22 -9 -18 -8 -17 -9 8 -9 19
-1 26 3 21 11 -5 8 -2 9 9 5 9 -3 19 -2 22 3 4 6 -25 10 -72 11 -43 0 -147 2
-230 3 -123 2 -153 0 -153 -11 0 -7 -9 -13 -20 -13 -11 0 -20 5 -20 11 0 6 7
9 15 5 9 -3 15 0 15 8 0 17 -93 20 -123 5 -16 -9 -18 -8 -12 10 4 12 2 21 -4
21 -6 0 -11 -6 -11 -12 0 -10 -2 -10 -8 -1 -4 6 -21 12 -37 11 -17 0 -43 5
-59 11 -23 9 -31 9 -38 -1 -6 -10 -8 -9 -8 4 0 22 -47 28 -80 10 -23 -13 -23
-13 -6 1 17 15 15 16 -25 26 -88 22 -185 52 -229 69 -14 6 -50 18 -80 27 -122
37 -395 165 -505 237 -27 17 -66 41 -85 51 -19 11 -66 45 -105 76 -38 31 -83
65 -100 76 -16 12 -30 29 -30 39 0 11 -8 20 -20 22 -20 3 -150 132 -142 141 3
2 25 -17 49 -43 63 -69 70 -75 75 -70 3 2 -1 15 -7 28 -7 12 14 -6 46 -41 32
-35 60 -59 62 -53 2 6 17 -3 33 -21 29 -31 30 -31 24 -7 -4 14 -14 31 -24 38
-83 63 -254 229 -341 331 -63 73 -119 127 -130 124 -4 -1 -7 5 -6 15 0 9 -5
17 -13 17 -8 0 -15 10 -16 22 -3 35 -12 37 -13 3 0 -16 4 -32 9 -35 5 -4 9
-11 9 -17 0 -23 -30 16 -59 77 -49 100 -54 117 -39 127 10 6 8 8 -4 8 -10 0
-18 7 -18 16 0 9 5 12 12 8 7 -4 8 -3 4 5 -4 6 -12 9 -17 6 -12 -8 -30 41 -22
62 5 11 3 14 -6 8 -10 -6 -11 -2 -6 16 5 18 4 20 -4 9 -8 -12 -12 -9 -20 13
-6 16 -11 35 -11 43 0 8 -4 14 -9 14 -5 0 -11 17 -15 38 -3 20 -13 50 -21 65
-8 16 -16 43 -18 60 -2 18 -9 50 -15 72 -41 150 -57 323 -48 510 11 262 69
495 179 727 85 179 215 372 298 443 16 14 15 9 -6 -15 -126 -148 -253 -387
-325 -610 -49 -152 -80 -336 -87 -520 -5 -125 11 -367 27 -405 5 -11 16 -60
26 -110 9 -49 23 -101 30 -115 7 -14 20 -51 29 -83 45 -163 216 -450 354 -593
27 -29 57 -64 66 -78 10 -15 32 -33 49 -41 17 -7 65 -42 106 -77 111 -93 287
-207 445 -286 136 -69 164 -81 176 -78 3 0 12 -4 20 -10 8 -6 59 -26 114 -44
55 -18 105 -36 110 -40 6 -4 18 -8 28 -9 39 -3 47 -5 47 -11 0 -3 8 -6 18 -7
9 -1 28 -4 42 -7 14 -3 39 -8 55 -12 17 -3 37 -8 45 -11 8 -4 21 -5 28 -4 7 1
29 -3 48 -9 19 -7 49 -13 67 -15 42 -4 125 -15 157 -21 34 -7 526 -6 625 1
248 18 472 60 744 140 576 168 941 325 1606 690 72 39 159 92 348 209 59 36
113 64 119 60 6 -4 8 -3 4 4 -9 14 32 42 53 35 12 -4 13 -3 2 5 -15 11 2 27
19 17 6 -4 9 -1 8 7 -2 7 5 12 14 12 10 -1 16 2 13 6 -3 5 32 34 77 66 46 32
164 117 263 189 99 72 230 164 290 204 94 63 324 229 445 321 701 533 983 739
1235 904 838 550 1576 845 2290 915 129 13 451 10 562 -5z m-8973 -1142 c2 -4
-8 -30 -22 -57 -20 -36 -39 -55 -72 -72 -25 -12 -48 -23 -53 -23 -13 0 5 114
20 132 8 9 27 19 42 21 48 7 80 7 85 -1z m263 -112 c57 -26 64 -33 94 -92 42
-82 42 -125 2 -210 -30 -64 -34 -68 -104 -102 -40 -20 -84 -36 -98 -36 -14 1
-60 18 -101 38 l-75 37 -33 80 -33 81 31 84 c28 80 33 86 73 104 134 62 144
63 244 16z m-292 -435 c8 -11 17 -32 20 -47 7 -28 7 -28 -44 -28 -69 0 -101
29 -101 93 0 24 3 47 6 50 10 9 104 -44 119 -68z m8714 -93 c13 -3 32 -12 41
-21 10 -9 29 -24 43 -33 13 -9 36 -46 51 -81 l27 -63 -31 -72 c-30 -66 -36
-72 -89 -98 -62 -31 -119 -34 -157 -9 -13 8 -30 15 -39 15 -24 0 -50 29 -79
86 -33 65 -32 95 2 164 20 40 38 61 67 77 22 13 36 23 30 24 -5 0 10 6 35 13
25 8 52 11 60 8 8 -2 26 -7 39 -10z"/>
<path d="M2254 15203 c-230 -198 -470 -569 -582 -898 -53 -157 -68 -210 -91
-325 -77 -373 -66 -838 28 -1190 43 -163 51 -188 84 -282 150 -418 416 -816
760 -1142 211 -199 398 -345 623 -484 102 -63 479 -257 569 -292 33 -13 83
-33 110 -46 104 -46 216 -88 400 -151 270 -92 279 -95 495 -158 490 -143 717
-216 845 -270 17 -7 46 -18 65 -25 282 -103 589 -271 813 -445 29 -22 64 -48
78 -57 52 -33 297 -287 356 -369 177 -245 285 -512 336 -829 16 -97 46 -393
50 -488 1 -29 7 -52 12 -53 19 0 46 165 52 316 12 328 -55 648 -198 940 -52
106 -54 110 -109 195 -188 298 -553 623 -935 832 -212 117 -388 199 -585 272
-121 46 -532 180 -660 216 -133 38 -162 47 -340 103 -96 31 -233 77 -305 103
-71 25 -150 53 -174 62 -25 8 -56 21 -70 29 -15 7 -30 13 -34 13 -40 0 -512
231 -688 337 -717 429 -1183 1041 -1369 1796 -71 289 -96 600 -71 867 47 482
230 930 578 1412 19 27 33 53 31 59 -2 7 -35 -15 -74 -48z m-578 -2048 c100
-752 541 -1457 1218 -1945 425 -306 978 -550 1776 -785 471 -139 848 -269
1010 -350 14 -6 75 -36 135 -64 362 -173 662 -392 889 -647 139 -156 163 -202
37 -71 -114 118 -309 286 -431 371 -148 103 -459 274 -620 341 -36 15 -83 35
-105 44 -213 92 -451 173 -835 286 -428 126 -826 261 -988 336 -35 16 -66 29
-69 29 -15 0 -245 109 -382 180 -215 112 -416 247 -631 424 -92 75 -314 294
-370 365 -19 24 -42 51 -51 60 -32 33 -239 323 -239 335 0 2 -21 40 -46 83
-26 43 -59 105 -74 138 -94 207 -90 199 -138 340 -58 173 -91 322 -111 495
-17 145 -20 229 -7 233 7 2 12 -12 13 -37 2 -23 10 -95 19 -161z"/>
<path d="M1370 12382 c0 -25 27 -179 40 -237 28 -115 74 -265 114 -369 41
-106 168 -370 204 -425 9 -14 22 -34 27 -43 24 -41 163 -238 203 -288 269
-333 658 -638 1086 -852 307 -154 678 -269 1266 -393 146 -31 314 -67 374 -80
60 -14 119 -25 132 -25 13 0 24 -4 24 -8 0 -5 -48 -14 -107 -21 -128 -14 -312
-58 -455 -107 -149 -52 -142 -51 -187 -11 -212 191 -519 146 -675 -101 -63
-101 -75 -271 -27 -396 11 -28 9 -32 -57 -100 -73 -75 -156 -182 -235 -299
-54 -81 -157 -282 -157 -307 0 -9 -4 -20 -9 -25 -13 -14 -65 -164 -89 -260
-74 -282 -87 -383 -86 -665 0 -237 10 -343 50 -530 26 -124 107 -369 126 -381
5 -3 10 -16 11 -27 1 -12 4 -22 8 -22 10 0 24 -41 20 -59 -1 -7 2 -10 8 -6 7
3 11 -2 11 -14 0 -10 4 -21 9 -23 5 -1 25 -35 44 -74 49 -103 138 -254 148
-254 18 0 8 29 -50 141 -32 63 -64 132 -71 154 -6 22 -18 54 -26 72 -8 17 -14
37 -14 44 0 7 -9 42 -21 78 -11 36 -24 80 -29 96 -42 136 -86 575 -76 745 15
235 76 550 131 675 8 17 25 62 38 100 32 89 90 212 139 293 21 34 38 65 38 68
0 22 199 281 264 343 l36 34 52 -25 c105 -51 194 -61 303 -33 193 50 341 243
333 434 -2 52 -1 54 33 68 19 8 54 21 79 29 25 8 54 19 65 24 11 5 54 16 95
26 41 9 81 22 89 28 8 6 15 9 15 8 1 -2 24 -1 51 3 78 11 94 13 113 19 44 13
89 17 257 20 171 3 253 -2 390 -24 33 -6 76 -12 95 -15 19 -3 78 -19 131 -35
53 -17 104 -30 113 -30 9 0 24 -4 34 -9 9 -5 28 -13 42 -19 129 -51 348 -157
401 -193 19 -13 71 -48 115 -77 174 -117 396 -327 542 -515 42 -54 78 -94 80
-88 6 19 -39 124 -95 221 -233 397 -571 699 -1037 925 -215 104 -327 150 -476
195 -41 12 -102 30 -135 40 -33 10 -91 26 -130 35 -38 9 -86 20 -105 25 -125
33 -228 56 -457 104 -873 185 -1045 230 -1363 363 -505 211 -1031 637 -1322
1070 -196 294 -286 478 -413 855 -26 75 -53 139 -61 142 -9 3 -14 -1 -14 -12z
m2497 -3012 c66 -30 69 -32 96 -95 15 -35 27 -70 27 -78 0 -7 -11 -40 -23 -73
-23 -56 -28 -61 -88 -91 -35 -18 -74 -32 -87 -32 -34 -1 -151 55 -159 76 -3
10 -14 37 -24 60 -21 47 -23 66 -9 91 5 9 18 38 29 65 18 42 27 51 83 77 35
15 69 29 75 29 7 1 43 -13 80 -29z"/>
<path d="M13670 8099 c-106 -12 -350 -61 -350 -70 0 -4 -12 -8 -27 -7 -30 0
-210 -58 -229 -73 -7 -5 -16 -9 -20 -7 -5 1 -26 -6 -48 -15 -21 -9 -44 -17
-50 -17 -6 0 -20 -6 -31 -14 -11 -7 -31 -17 -45 -21 -14 -4 -72 -29 -129 -56
-57 -27 -108 -46 -114 -42 -5 3 -7 1 -4 -4 4 -6 -33 -31 -86 -58 -50 -26 -99
-53 -107 -60 -8 -6 -42 -27 -75 -45 -33 -18 -131 -81 -218 -139 -88 -58 -169
-113 -182 -121 -41 -27 -197 -142 -330 -244 -71 -55 -168 -129 -215 -164 -47
-36 -106 -82 -131 -103 -26 -22 -50 -39 -54 -39 -10 0 -135 -100 -135 -109 0
-4 -13 -14 -29 -24 -16 -10 -42 -31 -58 -47 -15 -17 -32 -30 -36 -30 -5 0 -39
-27 -76 -60 -66 -59 -97 -78 -70 -42 13 15 12 16 -3 3 -10 -7 -16 -17 -13 -21
3 -4 -19 -26 -48 -48 -28 -22 -68 -54 -87 -72 -33 -30 -80 -60 -97 -61 -5 0
-10 -3 -13 -6 -3 -4 1 -3 8 1 20 12 14 -5 -10 -25 -32 -26 -45 -24 -22 4 l19
22 -22 -19 c-13 -10 -20 -23 -17 -27 3 -5 -7 -14 -22 -19 -27 -10 -82 -50 -70
-50 4 0 18 7 31 16 50 33 23 6 -54 -54 -83 -65 -122 -84 -61 -31 19 17 28 27
20 23 -27 -13 -60 -47 -54 -55 3 -5 -5 -13 -18 -18 -24 -9 -188 -138 -188
-148 0 -6 12 3 90 66 30 25 62 49 71 55 25 18 -63 -63 -101 -92 -19 -14 -80
-63 -135 -107 -55 -44 -113 -86 -128 -93 -17 -7 -25 -17 -21 -24 4 -6 3 -8 -3
-5 -13 8 -55 -22 -48 -34 4 -5 3 -9 -2 -9 -4 0 -31 -18 -60 -39 -28 -22 -53
-37 -56 -35 -2 3 -17 -9 -33 -26 -26 -28 -91 -75 -104 -75 -16 0 -79 -48 -74
-56 3 -5 0 -8 -8 -7 -7 2 -12 -4 -10 -12 2 -8 0 -12 -3 -8 -11 10 -67 -21 -60
-33 4 -5 2 -8 -3 -7 -13 4 -81 -38 -162 -99 -38 -29 -74 -53 -80 -53 -6 0 -8
-5 -4 -12 5 -7 2 -9 -8 -5 -11 4 -18 -1 -21 -15 -3 -11 -10 -17 -17 -13 -10 6
-113 -55 -125 -75 -3 -6 -15 -15 -27 -21 -16 -9 -19 -8 -13 3 4 8 2 8 -7 -2
-7 -8 -20 -16 -28 -18 -8 -2 -19 -8 -25 -14 -7 -8 -6 -8 4 -3 10 5 12 4 7 -4
-4 -6 -11 -9 -16 -6 -10 6 -122 -60 -114 -68 3 -3 -9 -13 -28 -23 -18 -9 -44
-25 -58 -36 -14 -10 -35 -20 -47 -22 -11 -3 -41 -17 -64 -32 -58 -36 -317
-165 -504 -250 -82 -37 -153 -72 -156 -77 -3 -5 -10 -8 -15 -8 -17 1 -44 -10
-44 -20 0 -11 13 -12 26 0 5 5 27 14 49 21 22 7 55 21 73 32 18 10 39 18 48
18 9 0 12 5 8 12 -5 8 -2 9 9 5 10 -3 17 -2 17 3 0 5 7 6 17 3 10 -4 14 -2 10
4 -4 5 5 15 19 22 15 6 23 7 19 1 -3 -5 -1 -10 6 -10 7 0 -10 -12 -39 -26 -29
-14 -52 -30 -52 -36 0 -6 -7 -8 -15 -4 -21 8 -19 -11 3 -24 16 -11 16 -11 -2
-6 -10 4 -25 1 -32 -5 -10 -8 -14 -8 -14 0 0 6 5 11 10 11 6 0 10 4 10 10 0 6
-9 6 -22 1 -13 -5 -22 -14 -21 -19 1 -6 -8 -7 -20 -4 -18 5 -20 3 -10 -9 10
-12 8 -15 -8 -16 -11 -1 -17 2 -14 7 3 4 -4 6 -15 3 -11 -3 -18 -8 -16 -12 3
-4 -8 -6 -25 -5 -16 1 -29 -2 -29 -8 0 -5 10 -6 23 -2 12 3 19 3 15 -1 -4 -4
-19 -9 -34 -11 -39 -4 -127 -25 -147 -36 -10 -5 -36 -11 -59 -14 -23 -3 -53
-11 -68 -19 -15 -8 -60 -23 -101 -34 -85 -22 -129 -38 -129 -46 0 -4 4 -4 8
-1 5 3 22 7 38 10 24 5 34 0 56 -27 27 -31 34 -28 28 13 -1 8 10 2 25 -15 18
-20 25 -24 21 -11 -5 16 -2 18 26 13 43 -6 139 12 137 27 -3 26 2 35 17 29 12
-4 13 -7 3 -14 -24 -15 -4 -18 39 -6 23 6 42 17 42 24 0 7 5 13 10 13 6 0 10
-4 10 -9 0 -10 45 1 87 21 11 6 26 8 31 4 6 -3 13 -2 16 2 3 5 27 15 53 22 27
7 54 18 61 23 7 5 15 7 19 4 3 -3 18 0 34 9 16 8 29 12 29 8 0 -4 7 -1 15 6 8
7 15 9 15 4 0 -5 4 -3 9 4 4 7 18 14 29 15 12 1 22 5 22 10 0 4 4 6 9 3 5 -3
11 3 14 14 3 11 11 20 19 20 10 0 10 -2 -2 -10 -26 -16 -6 -18 33 -3 21 9 37
22 38 32 0 10 2 11 6 4 7 -18 23 -16 23 2 0 8 10 19 23 25 21 11 21 10 3 -4
-11 -9 -17 -18 -14 -21 6 -7 81 26 86 38 2 4 8 5 13 1 5 -3 21 2 36 10 16 9
46 22 67 31 22 8 37 18 33 21 -3 3 -15 1 -26 -6 -12 -6 -25 -8 -30 -5 -5 3
-12 0 -14 -5 -3 -6 -4 -5 -3 2 2 7 8 14 14 14 7 1 17 2 23 3 5 0 7 6 3 13 -5
8 -2 9 9 5 10 -3 17 -2 17 3 0 6 -5 10 -10 10 -6 0 -4 10 5 23 8 13 13 26 10
29 -3 3 6 4 20 3 30 -4 34 11 5 20 -11 4 -18 11 -15 16 4 5 13 2 22 -6 17 -17
34 -16 41 3 2 7 -2 10 -12 6 -9 -3 -16 -1 -16 6 0 6 4 9 8 6 5 -3 16 4 25 15
18 21 37 25 37 8 0 -5 -5 -7 -12 -3 -7 4 -8 3 -4 -4 4 -7 2 -12 -5 -12 -7 0
-10 -2 -7 -5 11 -11 38 8 38 27 0 10 5 16 10 13 6 -4 7 -12 3 -18 -4 -7 0 -6
10 2 9 7 14 17 12 22 -3 4 11 17 32 27 70 35 218 115 231 125 8 7 12 5 12 -7
0 -13 4 -14 25 -4 14 6 25 19 25 29 0 11 16 26 43 39 23 11 80 45 127 75 47
30 96 60 110 68 43 23 75 42 80 47 12 12 138 93 141 91 2 -2 20 11 39 28 19
17 103 80 187 139 83 59 207 148 274 197 67 50 132 97 144 105 12 8 76 56 142
105 449 337 592 438 611 430 7 -2 10 -1 7 5 -7 11 29 32 40 22 5 -4 5 -2 1 5
-3 7 2 14 14 18 11 4 50 24 86 46 35 22 70 37 76 33 7 -4 8 -3 4 4 -7 11 106
82 225 143 159 80 360 130 437 109 69 -18 84 -52 76 -172 -8 -120 -4 -128 76
-128 108 0 218 76 271 189 18 38 21 58 17 117 -7 112 -62 190 -168 237 -36 16
-67 21 -155 21 -60 1 -125 -3 -142 -7 -19 -5 -33 -5 -33 1 0 5 60 53 133 107
72 54 148 110 167 124 128 96 469 310 600 377 52 27 101 55 108 62 8 7 18 10
23 7 5 -4 9 -2 9 3 0 9 63 41 90 46 8 1 46 17 84 35 37 18 71 30 74 27 3 -3
11 -1 18 4 6 6 20 13 30 15 43 10 94 32 87 38 -3 4 6 8 20 8 32 2 33 2 71 18
55 23 232 59 361 75 177 22 295 19 455 -8 144 -25 182 -36 292 -85 26 -12 52
-21 58 -21 5 0 10 -4 10 -10 0 -5 7 -10 15 -10 8 0 15 -5 15 -11 0 -5 4 -8 9
-4 5 3 16 -2 24 -10 9 -8 20 -15 26 -15 6 0 11 -4 11 -8 0 -4 14 -16 31 -26
54 -32 143 -111 173 -154 l28 -41 -47 -53 c-75 -83 -99 -145 -99 -253 0 -78 4
-97 27 -142 39 -76 79 -117 152 -154 36 -19 65 -38 65 -42 0 -18 -53 -163 -65
-177 -6 -8 -26 -40 -43 -71 -46 -82 -137 -168 -225 -214 -79 -41 -96 -57 -31
-30 37 15 79 12 69 -6 -9 -14 -1 -11 75 27 130 66 288 249 343 395 13 35 30
66 38 70 8 4 41 20 73 35 74 34 130 90 165 163 22 47 26 70 26 146 0 78 -4 97
-28 147 -55 113 -157 184 -279 194 l-73 7 -35 50 c-53 77 -206 227 -285 279
-99 65 -229 131 -305 156 -219 72 -468 97 -700 71z m1434 -779 c38 -16 50 -28
72 -73 l26 -53 -18 -55 c-18 -50 -23 -56 -76 -82 l-58 -28 -57 23 c-48 20 -60
30 -80 68 -28 56 -28 73 0 129 16 32 35 51 67 67 54 29 66 29 124 4z"/>
<path d="M11840 6221 c-24 -4 -57 -6 -73 -5 -15 2 -26 0 -23 -4 5 -9 -3 -11
-56 -14 -18 -1 -43 -7 -57 -14 -18 -10 -29 -10 -38 -2 -12 10 -17 4 -14 -14 2
-13 -18 -9 -26 5 -5 9 -16 11 -33 6 -23 -6 -23 -7 -3 -8 12 -1 25 -6 28 -11 4
-6 3 -10 -2 -9 -4 1 -37 0 -73 -1 -54 -2 -59 -4 -30 -9 l35 -7 -53 -12 c-30
-7 -58 -10 -62 -7 -5 3 -35 -8 -67 -25 -32 -17 -48 -28 -35 -25 42 12 22 -3
-27 -20 -27 -9 -52 -24 -56 -33 -5 -14 -7 -14 -15 -2 -8 12 -10 12 -10 1 0 -8
-6 -11 -17 -7 -10 4 -14 4 -11 0 7 -6 -43 -52 -49 -46 -2 1 -16 -4 -33 -13
-35 -18 -44 -19 -34 -3 4 7 3 8 -5 4 -6 -4 -9 -11 -6 -16 3 -5 -21 -24 -52
-44 -144 -87 -162 -100 -158 -107 3 -4 -6 -14 -19 -22 -13 -9 -29 -22 -37 -29
-8 -7 -23 -20 -33 -28 -18 -14 -19 -13 -12 4 7 20 7 20 -16 1 -13 -11 -25 -22
-28 -24 -3 -2 3 -1 13 2 9 4 17 2 17 -3 0 -6 -5 -10 -11 -10 -6 0 -34 -19 -63
-42 -29 -24 -68 -54 -86 -68 -19 -14 -48 -36 -64 -50 -17 -14 -50 -38 -73 -54
-24 -16 -53 -39 -65 -51 -54 -53 -138 -114 -151 -109 -7 2 -22 -5 -33 -17
l-19 -22 28 18 c88 57 -58 -69 -223 -191 -105 -78 -141 -103 -152 -104 -4 0
-15 -3 -24 -7 -13 -5 -13 -7 -2 -14 10 -7 9 -9 -4 -9 -10 0 -18 -5 -18 -11 0
-6 -6 -9 -12 -7 -7 3 -28 -10 -47 -29 -19 -18 -38 -33 -42 -33 -4 0 -19 -11
-33 -25 -14 -14 -28 -25 -31 -25 -6 0 -45 -38 -45 -45 0 -2 20 9 45 26 25 17
51 29 58 26 7 -3 22 2 32 10 19 15 19 15 -2 8 -13 -3 -23 -2 -23 3 0 5 9 12
20 15 11 3 20 1 20 -4 0 -5 5 -9 11 -9 6 0 9 7 6 14 -4 10 -1 13 9 9 7 -3 14
-8 14 -12 0 -9 -69 -44 -92 -46 -10 -1 -26 -9 -35 -17 -24 -21 -103 -58 -123
-58 -9 0 -28 -9 -41 -20 -12 -12 -38 -30 -56 -41 -18 -11 -33 -25 -33 -29 0
-5 22 5 49 21 57 35 90 37 64 4 -13 -16 -15 -17 -10 -2 9 25 -8 21 -21 -5 -6
-13 -11 -17 -11 -10 -1 7 -6 10 -11 7 -6 -4 -8 -10 -5 -15 3 -5 -4 -7 -16 -5
-15 3 -19 0 -15 -11 4 -12 1 -14 -14 -9 -11 4 -20 2 -20 -4 0 -6 -5 -11 -11
-11 -5 0 -7 6 -3 13 6 9 4 9 -7 0 -7 -7 -27 -13 -43 -13 -17 0 -46 -10 -65
-23 -19 -12 -51 -31 -72 -43 -22 -11 -36 -24 -33 -27 3 -3 -3 -3 -14 -1 -10 3
-25 0 -33 -8 -8 -7 -21 -14 -29 -16 -40 -9 -112 -72 -82 -72 12 0 125 46 202
82 341 161 370 177 364 195 -5 15 -4 16 5 3 9 -12 13 -13 20 -2 4 8 11 13 15
12 4 -1 12 1 19 3 7 3 4 6 -6 6 -10 1 -15 6 -12 11 4 7 13 7 25 0 16 -9 18 -8
14 5 -5 13 -1 15 24 10 19 -3 34 0 42 10 9 10 9 15 1 15 -42 0 41 61 92 66
l31 4 -34 -25 c-32 -24 -50 -31 -50 -20 0 2 12 11 28 19 15 8 22 15 16 16 -5
0 -25 -11 -42 -24 l-32 -23 27 -1 c16 0 39 8 53 18 14 10 49 29 78 44 29 15
55 33 59 41 3 8 9 12 14 9 11 -7 96 43 109 64 5 10 10 14 10 9 0 -12 50 24 50
37 0 7 -3 7 -8 1 -4 -5 -15 -16 -24 -23 -15 -12 -17 -11 -14 15 5 40 5 40 17
23 9 -13 10 -12 5 2 -3 10 -1 20 5 23 5 4 7 11 4 16 -4 5 -1 17 5 26 10 16 11
15 7 -4 -3 -13 -3 -23 -1 -23 13 0 121 96 130 116 5 14 13 21 17 18 4 -4 7 0
7 9 0 10 5 17 10 17 20 0 25 3 38 22 7 10 17 16 22 13 4 -3 11 2 14 11 4 10
13 13 28 9 16 -4 19 -3 10 3 -11 7 -8 14 15 29 44 31 53 35 53 24 0 -5 -9 -13
-20 -16 -11 -3 -20 -11 -20 -16 0 -5 13 -3 29 5 16 9 30 13 33 11 2 -2 4 5 5
16 1 12 -3 17 -10 13 -9 -5 -9 -4 -1 5 9 9 17 10 31 3 12 -7 25 -7 34 -1 11 7
9 9 -9 9 -19 0 -21 2 -10 14 9 10 15 11 20 2 5 -7 8 -5 8 7 0 15 11 22 33 18
4 0 7 3 7 8 0 18 215 145 230 136 5 -3 10 0 10 7 0 14 17 23 275 157 136 71
194 95 290 121 66 17 139 39 163 47 23 8 50 16 60 18 9 2 18 4 20 5 1 2 5 3
10 4 4 1 13 5 20 9 6 5 12 6 12 2 0 -3 8 -1 18 4 9 5 49 12 87 15 39 3 95 10
124 16 78 15 255 12 353 -5 81 -14 196 -56 209 -77 3 -5 9 -9 13 -9 15 1 35
-12 30 -20 -3 -5 -1 -9 3 -9 12 0 123 -108 123 -119 0 -6 6 -14 13 -18 25 -16
69 -134 83 -218 8 -53 4 -194 -6 -214 -4 -9 -16 -38 -25 -64 -9 -26 -30 -62
-46 -80 -16 -17 -29 -36 -29 -42 0 -5 5 -3 11 5 9 13 10 13 6 0 -2 -8 -9 -14
-15 -13 -6 2 -20 -10 -31 -25 -12 -17 -50 -42 -93 -62 -40 -18 -74 -37 -76
-42 -2 -4 -42 -8 -88 -8 -65 0 -84 3 -84 14 0 8 -12 17 -27 21 -40 9 -105 53
-127 84 -11 14 -13 20 -6 14 17 -15 34 -17 25 -3 -3 6 -2 10 2 10 5 0 14 -9
21 -20 7 -11 17 -20 24 -20 6 0 0 13 -15 28 -32 33 -34 42 -7 35 11 -3 17 -10
14 -17 -3 -6 2 -2 10 8 20 25 58 33 50 11 -17 -43 114 6 182 68 41 37 55 57
62 91 12 56 0 141 -26 190 -12 22 -18 44 -15 50 3 6 3 8 -1 4 -5 -4 -31 9 -58
27 -66 46 -117 58 -210 52 -54 -4 -91 -12 -128 -31 -59 -30 -64 -31 -54 -13 5
8 3 8 -9 -2 -9 -7 -14 -17 -11 -22 3 -5 -1 -6 -8 -4 -8 3 -25 -7 -38 -21 -14
-15 -19 -24 -12 -20 21 13 13 -5 -23 -47 -20 -23 -38 -53 -41 -67 -3 -14 -11
-36 -17 -49 -7 -14 -12 -71 -12 -138 0 -98 3 -117 18 -127 9 -7 17 -18 17 -25
0 -6 6 -11 13 -11 9 0 9 -2 0 -8 -17 -11 53 -126 108 -177 24 -22 36 -31 28
-20 -9 11 -14 25 -12 32 2 6 -1 14 -6 18 -6 3 -11 11 -11 16 0 6 5 7 10 4 6
-3 10 -2 10 4 0 19 -25 18 -36 -2 -11 -20 -12 -19 -29 12 -9 18 -14 36 -10 39
12 12 35 10 35 -4 0 -8 5 -15 10 -15 6 -1 16 -2 22 -3 7 0 17 -22 21 -48 6
-30 14 -48 23 -48 17 0 19 -17 3 -22 -7 -2 1 -12 16 -22 15 -10 24 -12 20 -5
-6 9 -2 11 13 7 12 -4 22 -2 22 3 0 5 -7 9 -15 9 -8 0 -15 6 -15 14 0 8 -11
17 -25 20 -14 4 -25 11 -25 16 0 13 17 13 25 -1 4 -6 13 -8 21 -5 8 3 14 -1
14 -9 0 -8 9 -20 19 -27 10 -6 17 -18 14 -25 -3 -8 3 -13 16 -13 12 0 21 -5
21 -10 0 -6 -12 -8 -27 -5 -24 5 -25 4 -10 -5 9 -6 27 -8 38 -5 15 5 19 4 15
-4 -8 -12 16 -24 73 -36 27 -6 32 -4 26 6 -6 11 -5 12 6 2 15 -15 175 -18 211
-4 86 33 116 49 142 73 17 15 46 34 66 43 19 9 43 29 52 45 9 17 23 30 30 30
9 -1 7 -5 -4 -14 -23 -17 -23 -22 1 -22 17 0 19 8 12 49 0 5 -7 5 -13 1 -10
-5 -10 -4 -1 6 16 18 57 25 47 8 -4 -7 -3 -8 4 -4 9 5 9 13 2 27 -8 14 -8 19
2 17 6 -2 13 4 13 12 0 8 6 14 12 13 6 -1 18 16 28 38 12 25 24 38 34 37 10
-2 23 11 34 32 9 19 23 34 29 32 8 -2 8 1 1 10 -8 9 -7 16 2 25 7 6 15 9 18 7
5 -5 12 23 38 164 6 34 9 81 5 105 -4 23 -11 73 -16 110 -11 77 -26 126 -66
212 -15 33 -28 66 -28 73 -1 7 -12 22 -26 33 -14 12 -19 17 -11 13 9 -5 12 -3
7 4 -4 7 -13 12 -19 12 -7 0 -19 10 -27 22 -8 12 -23 30 -32 40 -10 10 -18 22
-18 27 0 8 -25 31 -88 78 -13 10 -30 24 -37 31 -8 6 -18 12 -23 12 -6 0 -12 4
-14 8 -4 10 -111 62 -126 62 -7 0 -12 5 -12 11 0 6 -7 9 -15 5 -8 -3 -20 1
-28 8 -7 7 -28 16 -47 19 -19 3 -64 10 -100 15 -91 14 -316 22 -370 13z"/>
<path d="M7135 4264 c-221 -43 -303 -49 -708 -46 -329 2 -337 1 -327 -17 12
-23 113 -33 139 -14 26 20 218 12 205 -8 -8 -14 -122 -11 -127 4 -4 10 -6 10
-6 0 -1 -8 -17 -14 -43 -14 -42 -2 -42 -2 12 -9 69 -10 512 -2 640 10 52 5
129 12 170 14 41 3 111 12 155 21 44 8 92 15 107 15 15 0 29 4 32 8 2 4 -18 8
-45 7 -27 0 -49 -3 -49 -7 0 -19 -22 -5 -33 20 -14 32 -29 34 -122 16z"/>
</g>
</svg>
